<mxfile host="Electron" modified="2023-12-05T10:01:22.329Z" agent="Mozilla/5.0 (Macintosh; Intel Mac OS X 10_15_7) AppleWebKit/537.36 (KHTML, like Gecko) draw.io/22.1.2 Chrome/114.0.5735.289 Electron/25.9.4 Safari/537.36" etag="lfKreXOhxXpHHFCh31Xp" version="22.1.2" type="device" pages="2">
  <diagram id="C5RBs43oDa-KdzZeNtuy" name="Page-1 solution 1">
    <mxGraphModel dx="954" dy="621" grid="1" gridSize="10" guides="1" tooltips="1" connect="1" arrows="1" fold="1" page="1" pageScale="1" pageWidth="827" pageHeight="1169" math="0" shadow="0">
      <root>
        <mxCell id="WIyWlLk6GJQsqaUBKTNV-0" />
        <mxCell id="WIyWlLk6GJQsqaUBKTNV-1" parent="WIyWlLk6GJQsqaUBKTNV-0" />
        <mxCell id="QDgVgJRVjHlSTAZxgHE4-1" value="" style="edgeStyle=orthogonalEdgeStyle;rounded=0;orthogonalLoop=1;jettySize=auto;html=1;" edge="1" parent="WIyWlLk6GJQsqaUBKTNV-1">
          <mxGeometry relative="1" as="geometry">
            <mxPoint x="220" y="140" as="sourcePoint" />
            <mxPoint x="220" y="180" as="targetPoint" />
          </mxGeometry>
        </mxCell>
        <mxCell id="WIyWlLk6GJQsqaUBKTNV-4" value="Yes" style="rounded=0;html=1;jettySize=auto;orthogonalLoop=1;fontSize=11;endArrow=block;endFill=0;endSize=8;strokeWidth=1;shadow=0;labelBackgroundColor=none;edgeStyle=orthogonalEdgeStyle;" parent="WIyWlLk6GJQsqaUBKTNV-1" source="WIyWlLk6GJQsqaUBKTNV-6" target="WIyWlLk6GJQsqaUBKTNV-10" edge="1">
          <mxGeometry y="20" relative="1" as="geometry">
            <mxPoint as="offset" />
          </mxGeometry>
        </mxCell>
        <mxCell id="WIyWlLk6GJQsqaUBKTNV-5" value="No" style="edgeStyle=orthogonalEdgeStyle;rounded=0;html=1;jettySize=auto;orthogonalLoop=1;fontSize=11;endArrow=block;endFill=0;endSize=8;strokeWidth=1;shadow=0;labelBackgroundColor=none;" parent="WIyWlLk6GJQsqaUBKTNV-1" source="WIyWlLk6GJQsqaUBKTNV-6" target="WIyWlLk6GJQsqaUBKTNV-7" edge="1">
          <mxGeometry y="10" relative="1" as="geometry">
            <mxPoint as="offset" />
          </mxGeometry>
        </mxCell>
        <mxCell id="WIyWlLk6GJQsqaUBKTNV-6" value="Lamp&lt;br&gt;plugged in?" style="rhombus;whiteSpace=wrap;html=1;shadow=0;fontFamily=Helvetica;fontSize=12;align=center;strokeWidth=1;spacing=6;spacingTop=-4;" parent="WIyWlLk6GJQsqaUBKTNV-1" vertex="1">
          <mxGeometry x="170" y="1250" width="100" height="80" as="geometry" />
        </mxCell>
        <mxCell id="WIyWlLk6GJQsqaUBKTNV-7" value="Plug in lamp" style="rounded=1;whiteSpace=wrap;html=1;fontSize=12;glass=0;strokeWidth=1;shadow=0;" parent="WIyWlLk6GJQsqaUBKTNV-1" vertex="1">
          <mxGeometry x="320" y="1270" width="120" height="40" as="geometry" />
        </mxCell>
        <mxCell id="WIyWlLk6GJQsqaUBKTNV-8" value="No" style="rounded=0;html=1;jettySize=auto;orthogonalLoop=1;fontSize=11;endArrow=block;endFill=0;endSize=8;strokeWidth=1;shadow=0;labelBackgroundColor=none;edgeStyle=orthogonalEdgeStyle;" parent="WIyWlLk6GJQsqaUBKTNV-1" source="WIyWlLk6GJQsqaUBKTNV-10" target="WIyWlLk6GJQsqaUBKTNV-11" edge="1">
          <mxGeometry x="0.3333" y="20" relative="1" as="geometry">
            <mxPoint as="offset" />
          </mxGeometry>
        </mxCell>
        <mxCell id="WIyWlLk6GJQsqaUBKTNV-9" value="Yes" style="edgeStyle=orthogonalEdgeStyle;rounded=0;html=1;jettySize=auto;orthogonalLoop=1;fontSize=11;endArrow=block;endFill=0;endSize=8;strokeWidth=1;shadow=0;labelBackgroundColor=none;" parent="WIyWlLk6GJQsqaUBKTNV-1" source="WIyWlLk6GJQsqaUBKTNV-10" target="WIyWlLk6GJQsqaUBKTNV-12" edge="1">
          <mxGeometry y="10" relative="1" as="geometry">
            <mxPoint as="offset" />
          </mxGeometry>
        </mxCell>
        <mxCell id="WIyWlLk6GJQsqaUBKTNV-10" value="Bulb&lt;br&gt;burned out?" style="rhombus;whiteSpace=wrap;html=1;shadow=0;fontFamily=Helvetica;fontSize=12;align=center;strokeWidth=1;spacing=6;spacingTop=-4;" parent="WIyWlLk6GJQsqaUBKTNV-1" vertex="1">
          <mxGeometry x="170" y="1350" width="100" height="80" as="geometry" />
        </mxCell>
        <mxCell id="WIyWlLk6GJQsqaUBKTNV-11" value="Repair Lamp" style="rounded=1;whiteSpace=wrap;html=1;fontSize=12;glass=0;strokeWidth=1;shadow=0;" parent="WIyWlLk6GJQsqaUBKTNV-1" vertex="1">
          <mxGeometry x="160" y="1490" width="120" height="40" as="geometry" />
        </mxCell>
        <mxCell id="WIyWlLk6GJQsqaUBKTNV-12" value="Replace Bulb" style="rounded=1;whiteSpace=wrap;html=1;fontSize=12;glass=0;strokeWidth=1;shadow=0;" parent="WIyWlLk6GJQsqaUBKTNV-1" vertex="1">
          <mxGeometry x="320" y="1370" width="120" height="40" as="geometry" />
        </mxCell>
        <mxCell id="QDgVgJRVjHlSTAZxgHE4-3" value="" style="edgeStyle=orthogonalEdgeStyle;rounded=0;orthogonalLoop=1;jettySize=auto;html=1;" edge="1" parent="WIyWlLk6GJQsqaUBKTNV-1" target="QDgVgJRVjHlSTAZxgHE4-2">
          <mxGeometry relative="1" as="geometry">
            <mxPoint x="220" y="230" as="sourcePoint" />
          </mxGeometry>
        </mxCell>
        <mxCell id="QDgVgJRVjHlSTAZxgHE4-5" value="" style="edgeStyle=orthogonalEdgeStyle;rounded=0;orthogonalLoop=1;jettySize=auto;html=1;" edge="1" parent="WIyWlLk6GJQsqaUBKTNV-1" source="QDgVgJRVjHlSTAZxgHE4-2">
          <mxGeometry relative="1" as="geometry">
            <mxPoint x="220" y="430" as="targetPoint" />
          </mxGeometry>
        </mxCell>
        <mxCell id="QDgVgJRVjHlSTAZxgHE4-6" value="Yes" style="edgeLabel;html=1;align=center;verticalAlign=middle;resizable=0;points=[];" vertex="1" connectable="0" parent="QDgVgJRVjHlSTAZxgHE4-5">
          <mxGeometry x="-0.28" y="2" relative="1" as="geometry">
            <mxPoint as="offset" />
          </mxGeometry>
        </mxCell>
        <mxCell id="QDgVgJRVjHlSTAZxgHE4-18" value="" style="edgeStyle=orthogonalEdgeStyle;rounded=0;orthogonalLoop=1;jettySize=auto;html=1;" edge="1" parent="WIyWlLk6GJQsqaUBKTNV-1" source="QDgVgJRVjHlSTAZxgHE4-2" target="QDgVgJRVjHlSTAZxgHE4-17">
          <mxGeometry relative="1" as="geometry" />
        </mxCell>
        <mxCell id="QDgVgJRVjHlSTAZxgHE4-19" value="No" style="edgeLabel;html=1;align=center;verticalAlign=middle;resizable=0;points=[];" vertex="1" connectable="0" parent="QDgVgJRVjHlSTAZxgHE4-18">
          <mxGeometry x="-0.0545" y="-2" relative="1" as="geometry">
            <mxPoint y="-6" as="offset" />
          </mxGeometry>
        </mxCell>
        <mxCell id="QDgVgJRVjHlSTAZxgHE4-2" value="while status&amp;nbsp; is &#39;c&#39;" style="rhombus;whiteSpace=wrap;html=1;rounded=1;glass=0;strokeWidth=1;shadow=0;" vertex="1" parent="WIyWlLk6GJQsqaUBKTNV-1">
          <mxGeometry x="150" y="269" width="140" height="80" as="geometry" />
        </mxCell>
        <mxCell id="QDgVgJRVjHlSTAZxgHE4-8" value="" style="edgeStyle=orthogonalEdgeStyle;rounded=0;orthogonalLoop=1;jettySize=auto;html=1;" edge="1" parent="WIyWlLk6GJQsqaUBKTNV-1" target="QDgVgJRVjHlSTAZxgHE4-7">
          <mxGeometry relative="1" as="geometry">
            <mxPoint x="220" y="561" as="sourcePoint" />
          </mxGeometry>
        </mxCell>
        <mxCell id="QDgVgJRVjHlSTAZxgHE4-12" value="" style="edgeStyle=orthogonalEdgeStyle;rounded=0;orthogonalLoop=1;jettySize=auto;html=1;" edge="1" parent="WIyWlLk6GJQsqaUBKTNV-1" source="QDgVgJRVjHlSTAZxgHE4-7">
          <mxGeometry relative="1" as="geometry">
            <mxPoint x="220" y="730" as="targetPoint" />
          </mxGeometry>
        </mxCell>
        <mxCell id="QDgVgJRVjHlSTAZxgHE4-15" value="Yes" style="edgeLabel;html=1;align=center;verticalAlign=middle;resizable=0;points=[];" vertex="1" connectable="0" parent="QDgVgJRVjHlSTAZxgHE4-12">
          <mxGeometry x="0.1304" relative="1" as="geometry">
            <mxPoint as="offset" />
          </mxGeometry>
        </mxCell>
        <mxCell id="QDgVgJRVjHlSTAZxgHE4-33" value="" style="edgeStyle=orthogonalEdgeStyle;rounded=0;orthogonalLoop=1;jettySize=auto;html=1;" edge="1" parent="WIyWlLk6GJQsqaUBKTNV-1" source="QDgVgJRVjHlSTAZxgHE4-7" target="QDgVgJRVjHlSTAZxgHE4-32">
          <mxGeometry relative="1" as="geometry" />
        </mxCell>
        <mxCell id="QDgVgJRVjHlSTAZxgHE4-34" value="No" style="edgeLabel;html=1;align=center;verticalAlign=middle;resizable=0;points=[];" vertex="1" connectable="0" parent="QDgVgJRVjHlSTAZxgHE4-33">
          <mxGeometry x="-0.2333" y="-1" relative="1" as="geometry">
            <mxPoint y="-5" as="offset" />
          </mxGeometry>
        </mxCell>
        <mxCell id="QDgVgJRVjHlSTAZxgHE4-7" value="is_numeric" style="rhombus;whiteSpace=wrap;html=1;rounded=1;glass=0;strokeWidth=1;shadow=0;" vertex="1" parent="WIyWlLk6GJQsqaUBKTNV-1">
          <mxGeometry x="180" y="616" width="80" height="80" as="geometry" />
        </mxCell>
        <mxCell id="QDgVgJRVjHlSTAZxgHE4-14" value="" style="edgeStyle=orthogonalEdgeStyle;rounded=0;orthogonalLoop=1;jettySize=auto;html=1;" edge="1" parent="WIyWlLk6GJQsqaUBKTNV-1">
          <mxGeometry relative="1" as="geometry">
            <mxPoint x="220" y="774" as="sourcePoint" />
            <mxPoint x="220" y="810" as="targetPoint" />
          </mxGeometry>
        </mxCell>
        <mxCell id="QDgVgJRVjHlSTAZxgHE4-16" value="" style="endArrow=classic;html=1;rounded=0;exitX=0;exitY=0.5;exitDx=0;exitDy=0;entryX=0;entryY=0.5;entryDx=0;entryDy=0;" edge="1" parent="WIyWlLk6GJQsqaUBKTNV-1">
          <mxGeometry width="50" height="50" relative="1" as="geometry">
            <mxPoint x="160" y="827" as="sourcePoint" />
            <mxPoint x="160" y="546" as="targetPoint" />
            <Array as="points">
              <mxPoint x="40" y="827" />
              <mxPoint x="40" y="546" />
            </Array>
          </mxGeometry>
        </mxCell>
        <mxCell id="QDgVgJRVjHlSTAZxgHE4-21" value="" style="edgeStyle=orthogonalEdgeStyle;rounded=0;orthogonalLoop=1;jettySize=auto;html=1;" edge="1" parent="WIyWlLk6GJQsqaUBKTNV-1" source="QDgVgJRVjHlSTAZxgHE4-17">
          <mxGeometry relative="1" as="geometry">
            <mxPoint x="670" y="309" as="targetPoint" />
          </mxGeometry>
        </mxCell>
        <mxCell id="QDgVgJRVjHlSTAZxgHE4-26" value="Yes" style="edgeLabel;html=1;align=center;verticalAlign=middle;resizable=0;points=[];" vertex="1" connectable="0" parent="QDgVgJRVjHlSTAZxgHE4-21">
          <mxGeometry x="0.2333" y="-3" relative="1" as="geometry">
            <mxPoint x="-14" y="-4" as="offset" />
          </mxGeometry>
        </mxCell>
        <mxCell id="QDgVgJRVjHlSTAZxgHE4-28" value="" style="edgeStyle=orthogonalEdgeStyle;rounded=0;orthogonalLoop=1;jettySize=auto;html=1;" edge="1" parent="WIyWlLk6GJQsqaUBKTNV-1" source="QDgVgJRVjHlSTAZxgHE4-17">
          <mxGeometry relative="1" as="geometry">
            <mxPoint x="570" y="448" as="targetPoint" />
          </mxGeometry>
        </mxCell>
        <mxCell id="QDgVgJRVjHlSTAZxgHE4-45" value="No" style="edgeLabel;html=1;align=center;verticalAlign=middle;resizable=0;points=[];" vertex="1" connectable="0" parent="QDgVgJRVjHlSTAZxgHE4-28">
          <mxGeometry x="-0.1313" relative="1" as="geometry">
            <mxPoint as="offset" />
          </mxGeometry>
        </mxCell>
        <mxCell id="QDgVgJRVjHlSTAZxgHE4-17" value="is count ==0" style="rhombus;whiteSpace=wrap;html=1;rounded=1;glass=0;strokeWidth=1;shadow=0;" vertex="1" parent="WIyWlLk6GJQsqaUBKTNV-1">
          <mxGeometry x="530" y="269" width="80" height="80" as="geometry" />
        </mxCell>
        <mxCell id="QDgVgJRVjHlSTAZxgHE4-25" value="" style="edgeStyle=orthogonalEdgeStyle;rounded=0;orthogonalLoop=1;jettySize=auto;html=1;" edge="1" parent="WIyWlLk6GJQsqaUBKTNV-1">
          <mxGeometry relative="1" as="geometry">
            <mxPoint x="790" y="309" as="sourcePoint" />
            <mxPoint x="877" y="309" as="targetPoint" />
          </mxGeometry>
        </mxCell>
        <mxCell id="QDgVgJRVjHlSTAZxgHE4-30" value="" style="edgeStyle=orthogonalEdgeStyle;rounded=0;orthogonalLoop=1;jettySize=auto;html=1;entryX=0;entryY=0.5;entryDx=0;entryDy=0;" edge="1" parent="WIyWlLk6GJQsqaUBKTNV-1" target="QDgVgJRVjHlSTAZxgHE4-57">
          <mxGeometry relative="1" as="geometry">
            <mxPoint x="630" y="469" as="sourcePoint" />
            <mxPoint x="710" y="469" as="targetPoint" />
          </mxGeometry>
        </mxCell>
        <mxCell id="QDgVgJRVjHlSTAZxgHE4-31" value="" style="endArrow=classic;html=1;rounded=0;exitX=1;exitY=0.5;exitDx=0;exitDy=0;" edge="1" parent="WIyWlLk6GJQsqaUBKTNV-1" source="QDgVgJRVjHlSTAZxgHE4-57">
          <mxGeometry width="50" height="50" relative="1" as="geometry">
            <mxPoint x="830" y="469" as="sourcePoint" />
            <mxPoint x="910" y="328" as="targetPoint" />
            <Array as="points">
              <mxPoint x="910" y="470" />
            </Array>
          </mxGeometry>
        </mxCell>
        <mxCell id="QDgVgJRVjHlSTAZxgHE4-42" value="" style="edgeStyle=orthogonalEdgeStyle;rounded=0;orthogonalLoop=1;jettySize=auto;html=1;" edge="1" parent="WIyWlLk6GJQsqaUBKTNV-1" source="QDgVgJRVjHlSTAZxgHE4-32">
          <mxGeometry relative="1" as="geometry">
            <mxPoint x="400" y="730" as="targetPoint" />
          </mxGeometry>
        </mxCell>
        <mxCell id="QDgVgJRVjHlSTAZxgHE4-44" value="Yes" style="edgeLabel;html=1;align=center;verticalAlign=middle;resizable=0;points=[];" vertex="1" connectable="0" parent="QDgVgJRVjHlSTAZxgHE4-42">
          <mxGeometry x="-0.1081" y="-1" relative="1" as="geometry">
            <mxPoint y="-5" as="offset" />
          </mxGeometry>
        </mxCell>
        <mxCell id="QDgVgJRVjHlSTAZxgHE4-32" value="is equal &#39;q&#39;" style="rhombus;whiteSpace=wrap;html=1;rounded=1;glass=0;strokeWidth=1;shadow=0;" vertex="1" parent="WIyWlLk6GJQsqaUBKTNV-1">
          <mxGeometry x="320" y="616" width="80" height="80" as="geometry" />
        </mxCell>
        <mxCell id="QDgVgJRVjHlSTAZxgHE4-38" value="" style="endArrow=classic;html=1;rounded=0;entryX=1;entryY=0.5;entryDx=0;entryDy=0;" edge="1" parent="WIyWlLk6GJQsqaUBKTNV-1">
          <mxGeometry width="50" height="50" relative="1" as="geometry">
            <mxPoint x="360" y="619" as="sourcePoint" />
            <mxPoint x="280" y="546" as="targetPoint" />
            <Array as="points">
              <mxPoint x="360" y="546" />
            </Array>
          </mxGeometry>
        </mxCell>
        <mxCell id="QDgVgJRVjHlSTAZxgHE4-39" value="No" style="edgeLabel;html=1;align=center;verticalAlign=middle;resizable=0;points=[];" vertex="1" connectable="0" parent="QDgVgJRVjHlSTAZxgHE4-38">
          <mxGeometry x="-0.5425" y="-2" relative="1" as="geometry">
            <mxPoint as="offset" />
          </mxGeometry>
        </mxCell>
        <mxCell id="QDgVgJRVjHlSTAZxgHE4-43" value="" style="endArrow=classic;html=1;rounded=0;exitX=1;exitY=0.5;exitDx=0;exitDy=0;" edge="1" parent="WIyWlLk6GJQsqaUBKTNV-1" source="QDgVgJRVjHlSTAZxgHE4-51">
          <mxGeometry width="50" height="50" relative="1" as="geometry">
            <mxPoint x="460" y="620" as="sourcePoint" />
            <mxPoint x="490" y="310" as="targetPoint" />
            <Array as="points">
              <mxPoint x="490" y="750" />
            </Array>
          </mxGeometry>
        </mxCell>
        <mxCell id="QDgVgJRVjHlSTAZxgHE4-47" value="&lt;meta charset=&quot;utf-8&quot;&gt;&lt;span style=&quot;color: rgb(0, 0, 0); font-family: Helvetica; font-size: 12px; font-style: normal; font-variant-ligatures: normal; font-variant-caps: normal; font-weight: 400; letter-spacing: normal; orphans: 2; text-align: center; text-indent: 0px; text-transform: none; widows: 2; word-spacing: 0px; -webkit-text-stroke-width: 0px; background-color: rgb(251, 251, 251); text-decoration-thickness: initial; text-decoration-style: initial; text-decoration-color: initial; float: none; display: inline !important;&quot;&gt;Initialise Variables: status, total_score, count&amp;nbsp;&lt;/span&gt;" style="rounded=0;whiteSpace=wrap;html=1;" vertex="1" parent="WIyWlLk6GJQsqaUBKTNV-1">
          <mxGeometry x="160" y="180" width="120" height="50" as="geometry" />
        </mxCell>
        <mxCell id="QDgVgJRVjHlSTAZxgHE4-50" value="&lt;meta charset=&quot;utf-8&quot;&gt;&lt;span style=&quot;color: rgb(0, 0, 0); font-family: Helvetica; font-size: 12px; font-style: normal; font-variant-ligatures: normal; font-variant-caps: normal; font-weight: 400; letter-spacing: normal; orphans: 2; text-align: center; text-indent: 0px; text-transform: none; widows: 2; word-spacing: 0px; -webkit-text-stroke-width: 0px; background-color: rgb(251, 251, 251); text-decoration-thickness: initial; text-decoration-style: initial; text-decoration-color: initial; float: none; display: inline !important;&quot;&gt;Calculate Average&lt;/span&gt;" style="rounded=0;whiteSpace=wrap;html=1;" vertex="1" parent="WIyWlLk6GJQsqaUBKTNV-1">
          <mxGeometry x="510" y="448" width="120" height="35" as="geometry" />
        </mxCell>
        <mxCell id="QDgVgJRVjHlSTAZxgHE4-51" value="set status = &#39;q&#39;" style="rounded=0;whiteSpace=wrap;html=1;" vertex="1" parent="WIyWlLk6GJQsqaUBKTNV-1">
          <mxGeometry x="340" y="731" width="120" height="40" as="geometry" />
        </mxCell>
        <mxCell id="QDgVgJRVjHlSTAZxgHE4-52" value="increase count by 1" style="rounded=0;whiteSpace=wrap;html=1;" vertex="1" parent="WIyWlLk6GJQsqaUBKTNV-1">
          <mxGeometry x="160" y="810" width="120" height="40" as="geometry" />
        </mxCell>
        <mxCell id="QDgVgJRVjHlSTAZxgHE4-53" value="&lt;meta charset=&quot;utf-8&quot;&gt;&lt;span style=&quot;color: rgb(0, 0, 0); font-family: Helvetica; font-size: 12px; font-style: normal; font-variant-ligatures: normal; font-variant-caps: normal; font-weight: 400; letter-spacing: normal; orphans: 2; text-align: center; text-indent: 0px; text-transform: none; widows: 2; word-spacing: 0px; -webkit-text-stroke-width: 0px; background-color: rgb(251, 251, 251); text-decoration-thickness: initial; text-decoration-style: initial; text-decoration-color: initial; float: none; display: inline !important;&quot;&gt;add to total score&lt;/span&gt;" style="rounded=0;whiteSpace=wrap;html=1;" vertex="1" parent="WIyWlLk6GJQsqaUBKTNV-1">
          <mxGeometry x="160" y="730" width="120" height="40" as="geometry" />
        </mxCell>
        <mxCell id="QDgVgJRVjHlSTAZxgHE4-54" value="End" style="ellipse;whiteSpace=wrap;html=1;" vertex="1" parent="WIyWlLk6GJQsqaUBKTNV-1">
          <mxGeometry x="876" y="277" width="80" height="53.33" as="geometry" />
        </mxCell>
        <mxCell id="QDgVgJRVjHlSTAZxgHE4-55" value="Start" style="ellipse;whiteSpace=wrap;html=1;" vertex="1" parent="WIyWlLk6GJQsqaUBKTNV-1">
          <mxGeometry x="180" y="90" width="80" height="53.33" as="geometry" />
        </mxCell>
        <mxCell id="QDgVgJRVjHlSTAZxgHE4-56" value="Display:&lt;br&gt;&amp;nbsp;&quot;No valid score entered&quot;" style="shape=parallelogram;perimeter=parallelogramPerimeter;whiteSpace=wrap;html=1;fixedSize=1;" vertex="1" parent="WIyWlLk6GJQsqaUBKTNV-1">
          <mxGeometry x="660" y="279" width="160" height="60" as="geometry" />
        </mxCell>
        <mxCell id="QDgVgJRVjHlSTAZxgHE4-57" value="Display:&lt;br&gt;&amp;nbsp;&quot;Average runs scored is: &quot;+ average" style="shape=parallelogram;perimeter=parallelogramPerimeter;whiteSpace=wrap;html=1;fixedSize=1;" vertex="1" parent="WIyWlLk6GJQsqaUBKTNV-1">
          <mxGeometry x="690" y="440" width="170" height="60" as="geometry" />
        </mxCell>
        <mxCell id="QDgVgJRVjHlSTAZxgHE4-59" value="" style="edgeStyle=orthogonalEdgeStyle;rounded=0;orthogonalLoop=1;jettySize=auto;html=1;" edge="1" parent="WIyWlLk6GJQsqaUBKTNV-1" source="QDgVgJRVjHlSTAZxgHE4-58">
          <mxGeometry relative="1" as="geometry">
            <mxPoint x="220" y="531" as="targetPoint" />
          </mxGeometry>
        </mxCell>
        <mxCell id="QDgVgJRVjHlSTAZxgHE4-58" value="Display: &lt;br&gt;&quot;Enter score run:&quot;" style="shape=parallelogram;perimeter=parallelogramPerimeter;whiteSpace=wrap;html=1;fixedSize=1;" vertex="1" parent="WIyWlLk6GJQsqaUBKTNV-1">
          <mxGeometry x="155" y="430" width="130" height="60" as="geometry" />
        </mxCell>
        <mxCell id="QDgVgJRVjHlSTAZxgHE4-60" value="Accept input" style="shape=parallelogram;perimeter=parallelogramPerimeter;whiteSpace=wrap;html=1;fixedSize=1;" vertex="1" parent="WIyWlLk6GJQsqaUBKTNV-1">
          <mxGeometry x="148" y="530" width="140" height="40" as="geometry" />
        </mxCell>
      </root>
    </mxGraphModel>
  </diagram>
  <diagram id="bu0GN4Q7DNZYDUsJyoud" name="Page-2 solution 2">
    <mxGraphModel dx="954" dy="621" grid="1" gridSize="10" guides="1" tooltips="1" connect="1" arrows="1" fold="1" page="1" pageScale="1" pageWidth="827" pageHeight="1169" math="0" shadow="0">
      <root>
        <mxCell id="0" />
        <mxCell id="1" parent="0" />
        <mxCell id="WIYJS2FA5i9N_x8bmTrV-2" value="" style="edgeStyle=orthogonalEdgeStyle;rounded=0;orthogonalLoop=1;jettySize=auto;html=1;" edge="1" parent="1" source="2JmqoHLrR-zAyawZjZPp-1" target="WIYJS2FA5i9N_x8bmTrV-1">
          <mxGeometry relative="1" as="geometry" />
        </mxCell>
        <mxCell id="2JmqoHLrR-zAyawZjZPp-1" value="start" style="ellipse;whiteSpace=wrap;html=1;" vertex="1" parent="1">
          <mxGeometry x="350" y="50" width="90" height="50" as="geometry" />
        </mxCell>
        <mxCell id="WIYJS2FA5i9N_x8bmTrV-4" value="" style="edgeStyle=orthogonalEdgeStyle;rounded=0;orthogonalLoop=1;jettySize=auto;html=1;" edge="1" parent="1" source="WIYJS2FA5i9N_x8bmTrV-1" target="WIYJS2FA5i9N_x8bmTrV-3">
          <mxGeometry relative="1" as="geometry" />
        </mxCell>
        <mxCell id="WIYJS2FA5i9N_x8bmTrV-1" value="&lt;meta charset=&quot;utf-8&quot;&gt;&lt;span style=&quot;color: rgb(0, 0, 0); font-family: Helvetica; font-size: 12px; font-style: normal; font-variant-ligatures: normal; font-variant-caps: normal; font-weight: 400; letter-spacing: normal; orphans: 2; text-align: center; text-indent: 0px; text-transform: none; widows: 2; word-spacing: 0px; -webkit-text-stroke-width: 0px; background-color: rgb(251, 251, 251); text-decoration-thickness: initial; text-decoration-style: initial; text-decoration-color: initial; float: none; display: inline !important;&quot;&gt;Initialise Variables: status, total_score, count&amp;nbsp;&lt;/span&gt;" style="rounded=0;whiteSpace=wrap;html=1;" vertex="1" parent="1">
          <mxGeometry x="335" y="160" width="120" height="50" as="geometry" />
        </mxCell>
        <mxCell id="WIYJS2FA5i9N_x8bmTrV-6" value="" style="edgeStyle=orthogonalEdgeStyle;rounded=0;orthogonalLoop=1;jettySize=auto;html=1;" edge="1" parent="1" source="WIYJS2FA5i9N_x8bmTrV-3">
          <mxGeometry relative="1" as="geometry">
            <mxPoint x="395" y="360" as="targetPoint" />
          </mxGeometry>
        </mxCell>
        <mxCell id="WIYJS2FA5i9N_x8bmTrV-3" value="Display&lt;br&gt;&amp;nbsp;&quot;Enter number runs scored &lt;br&gt;(-1 to finish)&quot;" style="shape=parallelogram;perimeter=parallelogramPerimeter;whiteSpace=wrap;html=1;fixedSize=1;" vertex="1" parent="1">
          <mxGeometry x="300" y="260" width="190" height="60" as="geometry" />
        </mxCell>
        <mxCell id="WIYJS2FA5i9N_x8bmTrV-9" value="" style="edgeStyle=orthogonalEdgeStyle;rounded=0;orthogonalLoop=1;jettySize=auto;html=1;" edge="1" parent="1" source="WIYJS2FA5i9N_x8bmTrV-7" target="WIYJS2FA5i9N_x8bmTrV-8">
          <mxGeometry relative="1" as="geometry" />
        </mxCell>
        <mxCell id="WIYJS2FA5i9N_x8bmTrV-7" value="Accept input" style="shape=parallelogram;perimeter=parallelogramPerimeter;whiteSpace=wrap;html=1;fixedSize=1;" vertex="1" parent="1">
          <mxGeometry x="330" y="360" width="120" height="40" as="geometry" />
        </mxCell>
        <mxCell id="WIYJS2FA5i9N_x8bmTrV-11" value="" style="edgeStyle=orthogonalEdgeStyle;rounded=0;orthogonalLoop=1;jettySize=auto;html=1;" edge="1" parent="1" source="WIYJS2FA5i9N_x8bmTrV-8" target="WIYJS2FA5i9N_x8bmTrV-10">
          <mxGeometry relative="1" as="geometry" />
        </mxCell>
        <mxCell id="WIYJS2FA5i9N_x8bmTrV-12" value="No Errors" style="edgeLabel;html=1;align=center;verticalAlign=middle;resizable=0;points=[];" vertex="1" connectable="0" parent="WIYJS2FA5i9N_x8bmTrV-11">
          <mxGeometry x="-0.1" y="-2" relative="1" as="geometry">
            <mxPoint y="-7" as="offset" />
          </mxGeometry>
        </mxCell>
        <mxCell id="WIYJS2FA5i9N_x8bmTrV-14" value="" style="edgeStyle=orthogonalEdgeStyle;rounded=0;orthogonalLoop=1;jettySize=auto;html=1;" edge="1" parent="1" source="WIYJS2FA5i9N_x8bmTrV-8">
          <mxGeometry relative="1" as="geometry">
            <mxPoint x="210" y="500" as="targetPoint" />
          </mxGeometry>
        </mxCell>
        <mxCell id="WIYJS2FA5i9N_x8bmTrV-15" value="Error Occured" style="edgeLabel;html=1;align=center;verticalAlign=middle;resizable=0;points=[];" vertex="1" connectable="0" parent="WIYJS2FA5i9N_x8bmTrV-14">
          <mxGeometry x="0.0143" y="-1" relative="1" as="geometry">
            <mxPoint as="offset" />
          </mxGeometry>
        </mxCell>
        <mxCell id="WIYJS2FA5i9N_x8bmTrV-8" value="try{&lt;br&gt;//code&lt;br&gt;}" style="rhombus;whiteSpace=wrap;html=1;" vertex="1" parent="1">
          <mxGeometry x="350" y="460" width="80" height="80" as="geometry" />
        </mxCell>
        <mxCell id="WIYJS2FA5i9N_x8bmTrV-19" value="" style="edgeStyle=orthogonalEdgeStyle;rounded=0;orthogonalLoop=1;jettySize=auto;html=1;" edge="1" parent="1" source="WIYJS2FA5i9N_x8bmTrV-10">
          <mxGeometry relative="1" as="geometry">
            <mxPoint x="550" y="630" as="targetPoint" />
          </mxGeometry>
        </mxCell>
        <mxCell id="WIYJS2FA5i9N_x8bmTrV-25" value="Yes" style="edgeLabel;html=1;align=center;verticalAlign=middle;resizable=0;points=[];" vertex="1" connectable="0" parent="WIYJS2FA5i9N_x8bmTrV-19">
          <mxGeometry x="-0.337" y="1" relative="1" as="geometry">
            <mxPoint as="offset" />
          </mxGeometry>
        </mxCell>
        <mxCell id="WIYJS2FA5i9N_x8bmTrV-21" value="" style="edgeStyle=orthogonalEdgeStyle;rounded=0;orthogonalLoop=1;jettySize=auto;html=1;" edge="1" parent="1" source="WIYJS2FA5i9N_x8bmTrV-10" target="WIYJS2FA5i9N_x8bmTrV-20">
          <mxGeometry relative="1" as="geometry" />
        </mxCell>
        <mxCell id="WIYJS2FA5i9N_x8bmTrV-24" value="No" style="edgeLabel;html=1;align=center;verticalAlign=middle;resizable=0;points=[];" vertex="1" connectable="0" parent="WIYJS2FA5i9N_x8bmTrV-21">
          <mxGeometry x="-0.2286" relative="1" as="geometry">
            <mxPoint as="offset" />
          </mxGeometry>
        </mxCell>
        <mxCell id="WIYJS2FA5i9N_x8bmTrV-10" value="is input an integer" style="rhombus;whiteSpace=wrap;html=1;" vertex="1" parent="1">
          <mxGeometry x="510" y="460" width="80" height="80" as="geometry" />
        </mxCell>
        <mxCell id="WIYJS2FA5i9N_x8bmTrV-16" value="Display:&lt;br&gt;&amp;nbsp;&quot;Invalid input&quot;" style="shape=parallelogram;perimeter=parallelogramPerimeter;whiteSpace=wrap;html=1;fixedSize=1;" vertex="1" parent="1">
          <mxGeometry x="100" y="470" width="120" height="60" as="geometry" />
        </mxCell>
        <mxCell id="WIYJS2FA5i9N_x8bmTrV-17" value="" style="endArrow=classic;html=1;rounded=0;entryX=0;entryY=0.25;entryDx=0;entryDy=0;" edge="1" parent="1" target="WIYJS2FA5i9N_x8bmTrV-3">
          <mxGeometry width="50" height="50" relative="1" as="geometry">
            <mxPoint x="160" y="469" as="sourcePoint" />
            <mxPoint x="160" y="280" as="targetPoint" />
            <Array as="points">
              <mxPoint x="160" y="280" />
            </Array>
          </mxGeometry>
        </mxCell>
        <mxCell id="WIYJS2FA5i9N_x8bmTrV-20" value="Display:&lt;br&gt;&amp;nbsp;&quot;Please enter &lt;br&gt;a valid integer&quot;" style="shape=parallelogram;perimeter=parallelogramPerimeter;whiteSpace=wrap;html=1;fixedSize=1;" vertex="1" parent="1">
          <mxGeometry x="650" y="470" width="120" height="60" as="geometry" />
        </mxCell>
        <mxCell id="WIYJS2FA5i9N_x8bmTrV-22" value="" style="endArrow=classic;html=1;rounded=0;entryX=1;entryY=0.25;entryDx=0;entryDy=0;" edge="1" parent="1" target="WIYJS2FA5i9N_x8bmTrV-3">
          <mxGeometry width="50" height="50" relative="1" as="geometry">
            <mxPoint x="720" y="470" as="sourcePoint" />
            <mxPoint x="770" y="420" as="targetPoint" />
            <Array as="points">
              <mxPoint x="720" y="276" />
            </Array>
          </mxGeometry>
        </mxCell>
        <mxCell id="WIYJS2FA5i9N_x8bmTrV-27" value="" style="edgeStyle=orthogonalEdgeStyle;rounded=0;orthogonalLoop=1;jettySize=auto;html=1;" edge="1" parent="1" source="WIYJS2FA5i9N_x8bmTrV-23">
          <mxGeometry relative="1" as="geometry">
            <mxPoint x="660" y="670" as="targetPoint" />
          </mxGeometry>
        </mxCell>
        <mxCell id="FCHWK7VOQaFvFDLOCJWi-6" value="No" style="edgeLabel;html=1;align=center;verticalAlign=middle;resizable=0;points=[];" vertex="1" connectable="0" parent="WIYJS2FA5i9N_x8bmTrV-27">
          <mxGeometry x="-0.2624" relative="1" as="geometry">
            <mxPoint as="offset" />
          </mxGeometry>
        </mxCell>
        <mxCell id="jVZ0KMX9gQvLpVZFGmOd-16" value="" style="edgeStyle=orthogonalEdgeStyle;rounded=0;orthogonalLoop=1;jettySize=auto;html=1;" edge="1" parent="1" source="WIYJS2FA5i9N_x8bmTrV-23" target="jVZ0KMX9gQvLpVZFGmOd-5">
          <mxGeometry relative="1" as="geometry" />
        </mxCell>
        <mxCell id="jVZ0KMX9gQvLpVZFGmOd-17" value="yes" style="edgeLabel;html=1;align=center;verticalAlign=middle;resizable=0;points=[];" vertex="1" connectable="0" parent="jVZ0KMX9gQvLpVZFGmOd-16">
          <mxGeometry x="-0.2653" y="-2" relative="1" as="geometry">
            <mxPoint as="offset" />
          </mxGeometry>
        </mxCell>
        <mxCell id="WIYJS2FA5i9N_x8bmTrV-23" value="is input == -1" style="rhombus;whiteSpace=wrap;html=1;" vertex="1" parent="1">
          <mxGeometry x="510" y="630" width="80" height="80" as="geometry" />
        </mxCell>
        <mxCell id="FCHWK7VOQaFvFDLOCJWi-4" value="" style="edgeStyle=orthogonalEdgeStyle;rounded=0;orthogonalLoop=1;jettySize=auto;html=1;" edge="1" parent="1" source="FCHWK7VOQaFvFDLOCJWi-1" target="FCHWK7VOQaFvFDLOCJWi-3">
          <mxGeometry relative="1" as="geometry" />
        </mxCell>
        <mxCell id="FCHWK7VOQaFvFDLOCJWi-1" value="&lt;meta charset=&quot;utf-8&quot;&gt;&lt;span style=&quot;color: rgb(0, 0, 0); font-family: Helvetica; font-size: 12px; font-style: normal; font-variant-ligatures: normal; font-variant-caps: normal; font-weight: 400; letter-spacing: normal; orphans: 2; text-align: center; text-indent: 0px; text-transform: none; widows: 2; word-spacing: 0px; -webkit-text-stroke-width: 0px; background-color: rgb(251, 251, 251); text-decoration-thickness: initial; text-decoration-style: initial; text-decoration-color: initial; float: none; display: inline !important;&quot;&gt;add to total score&lt;/span&gt;" style="rounded=0;whiteSpace=wrap;html=1;" vertex="1" parent="1">
          <mxGeometry x="660" y="650" width="120" height="40" as="geometry" />
        </mxCell>
        <mxCell id="FCHWK7VOQaFvFDLOCJWi-3" value="&lt;span style=&quot;color: rgb(0, 0, 0); font-family: Helvetica; font-size: 12px; font-style: normal; font-variant-ligatures: normal; font-variant-caps: normal; font-weight: 400; letter-spacing: normal; orphans: 2; text-align: center; text-indent: 0px; text-transform: none; widows: 2; word-spacing: 0px; -webkit-text-stroke-width: 0px; background-color: rgb(251, 251, 251); text-decoration-thickness: initial; text-decoration-style: initial; text-decoration-color: initial; float: none; display: inline !important;&quot;&gt;add to count&lt;/span&gt;" style="rounded=0;whiteSpace=wrap;html=1;" vertex="1" parent="1">
          <mxGeometry x="860" y="650" width="120" height="40" as="geometry" />
        </mxCell>
        <mxCell id="FCHWK7VOQaFvFDLOCJWi-5" value="" style="endArrow=classic;html=1;rounded=0;" edge="1" parent="1">
          <mxGeometry width="50" height="50" relative="1" as="geometry">
            <mxPoint x="920" y="650" as="sourcePoint" />
            <mxPoint x="720" y="280" as="targetPoint" />
            <Array as="points">
              <mxPoint x="920" y="280" />
            </Array>
          </mxGeometry>
        </mxCell>
        <mxCell id="jVZ0KMX9gQvLpVZFGmOd-1" value="" style="edgeStyle=orthogonalEdgeStyle;rounded=0;orthogonalLoop=1;jettySize=auto;html=1;" edge="1" parent="1" source="jVZ0KMX9gQvLpVZFGmOd-5">
          <mxGeometry relative="1" as="geometry">
            <mxPoint x="640" y="799" as="targetPoint" />
          </mxGeometry>
        </mxCell>
        <mxCell id="jVZ0KMX9gQvLpVZFGmOd-2" value="Yes" style="edgeLabel;html=1;align=center;verticalAlign=middle;resizable=0;points=[];" vertex="1" connectable="0" parent="jVZ0KMX9gQvLpVZFGmOd-1">
          <mxGeometry x="0.2333" y="-3" relative="1" as="geometry">
            <mxPoint x="-14" y="-4" as="offset" />
          </mxGeometry>
        </mxCell>
        <mxCell id="jVZ0KMX9gQvLpVZFGmOd-3" value="" style="edgeStyle=orthogonalEdgeStyle;rounded=0;orthogonalLoop=1;jettySize=auto;html=1;" edge="1" parent="1" source="jVZ0KMX9gQvLpVZFGmOd-5">
          <mxGeometry relative="1" as="geometry">
            <mxPoint x="550" y="930" as="targetPoint" />
          </mxGeometry>
        </mxCell>
        <mxCell id="jVZ0KMX9gQvLpVZFGmOd-4" value="No" style="edgeLabel;html=1;align=center;verticalAlign=middle;resizable=0;points=[];" vertex="1" connectable="0" parent="jVZ0KMX9gQvLpVZFGmOd-3">
          <mxGeometry x="-0.1313" relative="1" as="geometry">
            <mxPoint as="offset" />
          </mxGeometry>
        </mxCell>
        <mxCell id="jVZ0KMX9gQvLpVZFGmOd-5" value="is count ==0" style="rhombus;whiteSpace=wrap;html=1;rounded=1;glass=0;strokeWidth=1;shadow=0;" vertex="1" parent="1">
          <mxGeometry x="510" y="759" width="80" height="80" as="geometry" />
        </mxCell>
        <mxCell id="jVZ0KMX9gQvLpVZFGmOd-6" value="" style="edgeStyle=orthogonalEdgeStyle;rounded=0;orthogonalLoop=1;jettySize=auto;html=1;entryX=1;entryY=0.5;entryDx=0;entryDy=0;exitX=0.663;exitY=1.017;exitDx=0;exitDy=0;exitPerimeter=0;" edge="1" parent="1" source="jVZ0KMX9gQvLpVZFGmOd-11" target="jVZ0KMX9gQvLpVZFGmOd-13">
          <mxGeometry relative="1" as="geometry">
            <mxPoint x="760" y="799" as="sourcePoint" />
            <mxPoint x="847" y="799" as="targetPoint" />
          </mxGeometry>
        </mxCell>
        <mxCell id="jVZ0KMX9gQvLpVZFGmOd-15" value="" style="edgeStyle=orthogonalEdgeStyle;rounded=0;orthogonalLoop=1;jettySize=auto;html=1;" edge="1" parent="1" source="jVZ0KMX9gQvLpVZFGmOd-9" target="jVZ0KMX9gQvLpVZFGmOd-12">
          <mxGeometry relative="1" as="geometry" />
        </mxCell>
        <mxCell id="jVZ0KMX9gQvLpVZFGmOd-9" value="&lt;meta charset=&quot;utf-8&quot;&gt;&lt;span style=&quot;color: rgb(0, 0, 0); font-family: Helvetica; font-size: 12px; font-style: normal; font-variant-ligatures: normal; font-variant-caps: normal; font-weight: 400; letter-spacing: normal; orphans: 2; text-align: center; text-indent: 0px; text-transform: none; widows: 2; word-spacing: 0px; -webkit-text-stroke-width: 0px; background-color: rgb(251, 251, 251); text-decoration-thickness: initial; text-decoration-style: initial; text-decoration-color: initial; float: none; display: inline !important;&quot;&gt;Calculate Average&lt;/span&gt;" style="rounded=0;whiteSpace=wrap;html=1;" vertex="1" parent="1">
          <mxGeometry x="500" y="930.5" width="120" height="35" as="geometry" />
        </mxCell>
        <mxCell id="jVZ0KMX9gQvLpVZFGmOd-11" value="Display:&lt;br&gt;&amp;nbsp;&quot;No valid score entered&quot;" style="shape=parallelogram;perimeter=parallelogramPerimeter;whiteSpace=wrap;html=1;fixedSize=1;" vertex="1" parent="1">
          <mxGeometry x="630" y="769" width="160" height="60" as="geometry" />
        </mxCell>
        <mxCell id="jVZ0KMX9gQvLpVZFGmOd-14" value="" style="edgeStyle=orthogonalEdgeStyle;rounded=0;orthogonalLoop=1;jettySize=auto;html=1;" edge="1" parent="1" source="jVZ0KMX9gQvLpVZFGmOd-12" target="jVZ0KMX9gQvLpVZFGmOd-13">
          <mxGeometry relative="1" as="geometry" />
        </mxCell>
        <mxCell id="jVZ0KMX9gQvLpVZFGmOd-12" value="Display:&lt;br&gt;&amp;nbsp;&quot;Average runs scored is: &quot;+ average" style="shape=parallelogram;perimeter=parallelogramPerimeter;whiteSpace=wrap;html=1;fixedSize=1;" vertex="1" parent="1">
          <mxGeometry x="465" y="1020" width="170" height="60" as="geometry" />
        </mxCell>
        <mxCell id="jVZ0KMX9gQvLpVZFGmOd-13" value="End" style="ellipse;whiteSpace=wrap;html=1;" vertex="1" parent="1">
          <mxGeometry x="510" y="1150" width="80" height="53.33" as="geometry" />
        </mxCell>
      </root>
    </mxGraphModel>
  </diagram>
</mxfile>
